<?xml version="1.0" encoding="UTF-8"?>
<!DOCTYPE svg PUBLIC "-//W3C//DTD SVG 1.1//EN" "http://www.w3.org/Graphics/SVG/1.1/DTD/svg11.dtd">
<svg xmlns="http://www.w3.org/2000/svg" version="1.1" width="4501px" height="1476px" style="shape-rendering:geometricPrecision; text-rendering:geometricPrecision; image-rendering:optimizeQuality; fill-rule:evenodd; clip-rule:evenodd" xmlns:xlink="http://www.w3.org/1999/xlink">
<g><path style="opacity:0.987" fill="#414242" d="M 629.5,168.5 C 670.278,166.628 709.278,173.794 746.5,190C 779.187,204.37 807.687,224.537 832,250.5C 857.342,279.164 876.009,311.831 888,348.5C 892.183,362.583 895.017,376.916 896.5,391.5C 983.833,391.5 1071.17,391.5 1158.5,391.5C 1158.67,597.5 1158.5,803.5 1158,1009.5C 1152.12,1115.11 1107.95,1200.28 1025.5,1265C 999.997,1283.09 972.663,1298.09 943.5,1310C 915.762,1319.35 887.429,1326.02 858.5,1330C 615.513,1331.49 372.513,1331.99 129.5,1331.5C 129.5,1018.17 129.5,704.833 129.5,391.5C 216.833,391.5 304.167,391.5 391.5,391.5C 393.364,372.876 397.364,354.71 403.5,337C 428.628,272.038 472.294,224.038 534.5,193C 542.932,190.079 551.099,186.579 559,182.5C 582.06,174.921 605.56,170.254 629.5,168.5 Z M 641.5,233.5 C 701.398,234.665 750.898,257.665 790,302.5C 812.164,328.839 825.664,359.173 830.5,393.5C 764.764,397.765 702.764,415.099 644.5,445.5C 585.409,415.53 522.742,398.03 456.5,393C 463.476,357.216 478.643,325.382 502,297.5C 508.167,292.667 513.667,287.167 518.5,281C 542.545,261.476 569.545,247.476 599.5,239C 613.523,236.165 627.523,234.331 641.5,233.5 Z"/></g>
<g><path style="opacity:1" fill="#5fbb54" d="M 644.5,487.5 C 644.5,554.833 644.5,622.167 644.5,689.5C 634.635,670.111 623.468,651.444 611,633.5C 605.617,628.784 600.95,623.451 597,617.5C 528.837,550.576 448.003,528.41 354.5,551C 270.552,578.615 215.052,634.448 188,718.5C 166.576,809.492 187.576,888.825 251,956.5C 310.126,1011.37 379.959,1033.71 460.5,1023.5C 461.239,1023.37 461.906,1023.54 462.5,1024C 365.689,1074.4 297.523,1150.57 258,1252.5C 253.528,1266.44 249.361,1280.44 245.5,1294.5C 219.167,1294.5 192.833,1294.5 166.5,1294.5C 166.5,1006.17 166.5,717.833 166.5,429.5C 166.611,428.883 166.944,428.383 167.5,428C 254.5,427.333 341.5,427.333 428.5,428C 490.555,429.78 549.888,443.113 606.5,468C 619.641,473.736 632.307,480.236 644.5,487.5 Z"/></g>
<g><path style="opacity:1" fill="#4e9c4c" d="M 1014.5,1226.5 C 1013.7,1221.88 1012.03,1217.55 1009.5,1213.5C 1001.73,1200.3 994.233,1186.96 987,1173.5C 950.284,1116.45 902.784,1070.62 844.5,1036C 836.531,1032.02 828.531,1028.02 820.5,1024C 819.695,1022.89 819.028,1021.72 818.5,1020.5C 846.906,1027.22 875.573,1028.22 904.5,1023.5C 906.483,1023.84 907.817,1023.18 908.5,1021.5C 950.086,1014.7 987.086,998.196 1019.5,972C 1030.02,962.475 1040.19,952.642 1050,942.5C 1086.04,900.023 1105.21,850.69 1107.5,794.5C 1108.82,791.572 1109.49,788.239 1109.5,784.5C 1109.49,780.761 1108.82,777.428 1107.5,774.5C 1104.04,700.416 1073.71,640.249 1016.5,594C 949.733,543.983 875.9,530.15 795,552.5C 785.679,556.719 776.179,560.553 766.5,564C 756.645,568.76 746.978,573.76 737.5,579C 720.581,591.408 704.415,604.908 689,619.5C 680.656,630.206 672.322,640.872 664,651.5C 656.684,663.8 650.184,676.467 644.5,689.5C 644.5,622.167 644.5,554.833 644.5,487.5C 652.655,481.918 661.322,477.085 670.5,473C 730.155,444.337 793.155,429.337 859.5,428C 946.737,427.168 1033.9,427.335 1121,428.5C 1121.99,629.85 1121.65,831.183 1120,1032.5C 1109.54,1111.12 1074.38,1175.78 1014.5,1226.5 Z"/></g>
<g><path style="opacity:1" fill="#55854d" d="M 166.5,429.5 C 166.5,717.833 166.5,1006.17 166.5,1294.5C 192.833,1294.5 219.167,1294.5 245.5,1294.5C 378.5,1294.5 511.5,1294.5 644.5,1294.5C 710.5,1294.5 776.5,1294.5 842.5,1294.5C 617.001,1295.5 391.334,1295.83 165.5,1295.5C 165.167,1006.67 165.5,718 166.5,429.5 Z"/></g>
<g><path style="opacity:0.988" fill="#42b648" d="M 3751.5,512.5 C 3755.17,512.5 3758.83,512.5 3762.5,512.5C 3762.67,624.5 3762.5,736.5 3762,848.5C 3759.36,884.429 3748.36,917.429 3729,947.5C 3716.13,964.707 3700.96,979.54 3683.5,992C 3654.47,1009.3 3622.97,1017.8 3589,1017.5C 3517.54,1017.3 3465.21,985.968 3432,923.5C 3429.83,916.995 3427,910.828 3423.5,905C 3407.83,858.511 3407.66,812.011 3423,765.5C 3441.81,721.361 3473.31,689.861 3517.5,671C 3572.01,653.924 3624.67,658.424 3675.5,684.5C 3676.83,710.833 3676.83,737.167 3675.5,763.5C 3656.22,749.362 3634.88,739.195 3611.5,733C 3576.68,725.408 3545.02,732.075 3516.5,753C 3487.71,782.703 3476.55,818.203 3483,859.5C 3489.13,895.254 3507.96,921.754 3539.5,939C 3561.68,948.376 3584.68,951.042 3608.5,947C 3632.17,941.757 3651.34,929.59 3666,910.5C 3678.9,890.457 3686.24,868.457 3688,844.5C 3688.98,751.146 3689.98,657.813 3691,564.5C 3700.56,534.769 3720.73,517.435 3751.5,512.5 Z"/></g>
<g><path style="opacity:0.982" fill="#42b648" d="M 2022.5,515.5 C 2027.17,515.5 2031.83,515.5 2036.5,515.5C 2036.5,608.167 2036.5,700.833 2036.5,793.5C 2048.88,793.843 2061.21,793.343 2073.5,792C 2085.08,789.09 2094.58,782.923 2102,773.5C 2122.36,739.283 2142.86,705.116 2163.5,671C 2190.5,670.5 2217.5,670.333 2244.5,670.5C 2241.37,676.769 2238.2,683.103 2235,689.5C 2217.74,717.7 2200.74,746.033 2184,774.5C 2178.1,781.95 2172.43,789.617 2167,797.5C 2163.17,801.333 2159.33,805.167 2155.5,809C 2198.05,824.871 2219.89,855.704 2221,901.5C 2221.5,938.498 2221.67,975.498 2221.5,1012.5C 2181.69,1013.36 2157.36,994.358 2148.5,955.5C 2147.99,936.47 2147.15,917.47 2146,898.5C 2142.12,876.284 2128.95,864.117 2106.5,862C 2083.17,861.5 2059.84,861.333 2036.5,861.5C 2036.5,911.833 2036.5,962.167 2036.5,1012.5C 2002.69,1013.69 1979.52,998.691 1967,967.5C 1965.27,961.963 1964.27,956.296 1964,950.5C 1963.01,823.478 1963.35,696.478 1965,569.5C 1967.32,557.512 1972.49,547.012 1980.5,538C 1992.49,526.51 2006.49,519.01 2022.5,515.5 Z"/></g>
<g><path style="opacity:1" fill="#414242" d="M 644.5,689.5 C 650.184,676.467 656.684,663.8 664,651.5C 672.322,640.872 680.656,630.206 689,619.5C 704.415,604.908 720.581,591.408 737.5,579C 746.978,573.76 756.645,568.76 766.5,564C 776.179,560.553 785.679,556.719 795,552.5C 875.9,530.15 949.733,543.983 1016.5,594C 1073.71,640.249 1104.04,700.416 1107.5,774.5C 1107.5,781.167 1107.5,787.833 1107.5,794.5C 1105.21,850.69 1086.04,900.023 1050,942.5C 1040.19,952.642 1030.02,962.475 1019.5,972C 987.086,998.196 950.086,1014.7 908.5,1021.5C 906.517,1021.16 905.183,1021.82 904.5,1023.5C 875.573,1028.22 846.906,1027.22 818.5,1020.5C 811.885,1018.94 805.218,1017.44 798.5,1016C 788.382,1012.59 778.382,1009.25 768.5,1006C 726.896,1047.62 685.563,1089.45 644.5,1131.5C 642.281,1132.54 640.281,1132.04 638.5,1130C 597.952,1088.45 557.118,1047.29 516,1006.5C 497.517,1013.23 479.017,1018.9 460.5,1023.5C 379.959,1033.71 310.126,1011.37 251,956.5C 187.576,888.825 166.576,809.492 188,718.5C 215.052,634.448 270.552,578.615 354.5,551C 448.003,528.41 528.837,550.576 597,617.5C 600.95,623.451 605.617,628.784 611,633.5C 623.468,651.444 634.635,670.111 644.5,689.5 Z"/></g>
<g><path style="opacity:0.98" fill="#42b648" d="M 3872.5,555.5 C 3889.78,552.869 3904.28,557.869 3916,570.5C 3923.06,581.849 3925.4,594.183 3923,607.5C 3918.15,628.678 3904.81,639.011 3883,638.5C 3860.35,639.174 3846.35,628.508 3841,606.5C 3836.88,580.006 3847.38,563.006 3872.5,555.5 Z"/></g>
<g><path style="opacity:1" fill="#fefefe" d="M 431.5,988.5 C 423.167,988.5 414.833,988.5 406.5,988.5C 336.216,982.462 282.383,949.795 245,890.5C 210.17,828.885 206.17,765.219 233,699.5C 263.647,637.871 312.481,598.705 379.5,582C 423.445,573.952 465.779,578.952 506.5,597C 543.896,614.463 573.73,640.629 596,675.5C 624.729,723.233 633.395,774.566 622,829.5C 605.118,895.039 566.285,942.539 505.5,972C 481.828,981.977 457.162,987.477 431.5,988.5 Z"/></g>
<g><path style="opacity:1" fill="#fefefe" d="M 882.5,988.5 C 877.706,987.903 873.373,988.57 869.5,990.5C 867.5,990.5 865.5,990.5 863.5,990.5C 861.365,988.631 858.698,987.964 855.5,988.5C 800.349,985.527 753.849,964.194 716,924.5C 712.717,919.217 708.717,914.55 704,910.5C 661.232,851.596 650.399,787.096 671.5,717C 698.204,648.958 746.537,604.625 816.5,584C 879.798,570.224 937.798,581.89 990.5,619C 1001.61,629.444 1012.78,639.944 1024,650.5C 1032.26,662.03 1040.26,673.697 1048,685.5C 1074.49,739.037 1078.82,794.37 1061,851.5C 1049.77,882.466 1032.6,909.633 1009.5,933C 982.41,958.052 950.743,975.052 914.5,984C 903.902,986.044 893.236,987.544 882.5,988.5 Z"/></g>
<g><path style="opacity:0.988" fill="#42b648" d="M 1409.5,583.5 C 1413.83,583.5 1418.17,583.5 1422.5,583.5C 1422.5,612.167 1422.5,640.833 1422.5,669.5C 1462.17,669.5 1501.83,669.5 1541.5,669.5C 1541.5,692.5 1541.5,715.5 1541.5,738.5C 1501.83,738.5 1462.17,738.5 1422.5,738.5C 1422.33,798.168 1422.5,857.834 1423,917.5C 1425.68,934.847 1435.85,943.68 1453.5,944C 1482.83,944.5 1512.16,944.667 1541.5,944.5C 1541.5,967.5 1541.5,990.5 1541.5,1013.5C 1507.5,1013.67 1473.5,1013.5 1439.5,1013C 1396.71,1008.86 1368.87,986.364 1356,945.5C 1353.47,936.999 1351.81,928.332 1351,919.5C 1350.33,825.833 1350.33,732.167 1351,638.5C 1355.62,615.75 1368.45,599.583 1389.5,590C 1396,586.896 1402.67,584.729 1409.5,583.5 Z"/></g>
<g><path style="opacity:1" fill="#414242" d="M 436.5,655.5 C 489.231,653.343 529.398,674.676 557,719.5C 565.445,735.956 571.112,753.289 574,771.5C 575.138,806.491 565.471,838.158 545,866.5C 507.759,907.575 461.925,921.742 407.5,909C 382.1,901.556 360.933,887.722 344,867.5C 320.381,837.722 310.715,803.722 315,765.5C 317.158,749.025 322.491,733.692 331,719.5C 340.327,741.495 356.494,755.662 379.5,762C 399.073,765.109 416.406,760.443 431.5,748C 450.134,732.942 457.634,713.442 454,689.5C 452.582,675.658 446.749,664.325 436.5,655.5 Z"/></g>
<g><path style="opacity:1" fill="#414242" d="M 832.5,655.5 C 865.829,653.441 895.829,662.607 922.5,683C 932.774,693.266 942.274,704.099 951,715.5C 977.21,765.311 975.21,813.978 945,861.5C 904.563,909.413 854.063,924.247 793.5,906C 783.362,901.766 773.696,896.766 764.5,891C 752.299,880.466 741.132,868.966 731,856.5C 708.597,819.24 704.263,779.907 718,738.5C 720.727,732.046 723.727,725.712 727,719.5C 729.679,727.029 733.512,733.863 738.5,740C 744.398,745.734 750.731,750.901 757.5,755.5C 788.179,768.973 814.679,763.307 837,738.5C 844.003,730.49 848.336,721.157 850,710.5C 854.032,688.772 848.199,670.438 832.5,655.5 Z"/></g>
<g><path style="opacity:0.988" fill="#42b648" d="M 3191.5,659.5 C 3250.16,657.605 3299.66,677.605 3340,719.5C 3365.73,747.659 3380.06,780.993 3383,819.5C 3383.34,827.511 3383.84,835.511 3384.5,843.5C 3383.72,850.145 3383.39,856.812 3383.5,863.5C 3288.84,862.632 3194.17,862.299 3099.5,862.5C 3102.11,878.717 3108.28,893.384 3118,906.5C 3126.56,914.734 3135.39,922.567 3144.5,930C 3162.85,941.505 3182.85,947.672 3204.5,948.5C 3215.89,948.269 3226.89,946.102 3237.5,942C 3247.2,936.823 3256.53,931.156 3265.5,925C 3275.69,914.812 3285.86,904.645 3296,894.5C 3316.17,907.502 3335.34,921.835 3353.5,937.5C 3340.97,963.2 3322.63,983.7 3298.5,999C 3237.25,1028.3 3176.59,1026.97 3116.5,995C 3098.82,984.224 3082.66,971.39 3068,956.5C 3033.37,914.353 3019.71,866.019 3027,811.5C 3030.61,789.668 3037.61,769.001 3048,749.5C 3055.92,737.909 3064.25,726.576 3073,715.5C 3085.05,703.913 3097.88,693.413 3111.5,684C 3136.5,670.054 3163.16,661.887 3191.5,659.5 Z M 3194.5,728.5 C 3224.56,726.688 3251.56,734.855 3275.5,753C 3281.34,758.505 3286.84,764.338 3292,770.5C 3297.19,778.548 3301.02,787.215 3303.5,796.5C 3239.17,797.5 3174.84,797.833 3110.5,797.5C 3112.94,790.021 3116.44,783.021 3121,776.5C 3128.1,767.729 3135.6,759.229 3143.5,751C 3158.61,739.111 3175.61,731.611 3194.5,728.5 Z"/></g>
<g><path style="opacity:0.987" fill="#42b648" d="M 4154.5,659.5 C 4196.67,656.856 4236.33,665.356 4273.5,685C 4286.19,694.015 4298.03,704.181 4309,715.5C 4321.21,732.259 4330.55,750.593 4337,770.5C 4340.12,782.986 4342.12,795.653 4343,808.5C 4343.5,875.499 4343.67,942.499 4343.5,1009.5C 4312.03,1010.78 4289.53,997.449 4276,969.5C 4274.05,964.658 4272.72,959.658 4272,954.5C 4271.18,907.811 4271.34,861.144 4272.5,814.5C 4270.14,784.936 4256.81,761.769 4232.5,745C 4198.8,727.331 4163.8,724.331 4127.5,736C 4095.77,750.406 4075.6,774.573 4067,808.5C 4057.15,850.284 4066.32,887.117 4094.5,919C 4120.56,942.857 4151.23,951.857 4186.5,946C 4204.03,942.072 4219.03,933.739 4231.5,921C 4240.06,912.277 4248.06,903.111 4255.5,893.5C 4256.67,923.161 4256.83,952.828 4256,982.5C 4229.49,1006.56 4198.16,1018.23 4162,1017.5C 4095.55,1016.28 4046.22,986.947 4014,929.5C 3999.49,899.277 3991.99,867.444 3991.5,834C 3991.34,768.623 4018.34,718.289 4072.5,683C 4098.19,669.155 4125.52,661.322 4154.5,659.5 Z"/></g>
<g><path style="opacity:0.988" fill="#42b648" d="M 2805.5,661.5 C 2876.99,656.661 2931.82,683.994 2970,743.5C 2997.03,792.802 3003.7,844.802 2990,899.5C 2973.2,947.334 2942.04,982.501 2896.5,1005C 2844.54,1024.04 2793.21,1022.37 2742.5,1000C 2738.42,998.213 2734.59,996.046 2731,993.5C 2730.33,967.5 2730.33,941.5 2731,915.5C 2757.31,935.885 2787.14,947.552 2820.5,950.5C 2839.05,949.946 2856.71,945.779 2873.5,938C 2892.13,927.362 2905.96,912.195 2915,892.5C 2932.09,849.864 2928.42,809.198 2904,770.5C 2882.36,743.937 2854.2,730.603 2819.5,730.5C 2767.42,733.743 2735.25,760.743 2723,811.5C 2721.55,820.222 2719.88,828.888 2718,837.5C 2716.53,945.486 2716.03,1053.49 2716.5,1161.5C 2680.36,1161.18 2656.86,1143.85 2646,1109.5C 2644.35,1017.86 2644.01,926.197 2645,834.5C 2647.64,793.244 2660.97,755.91 2685,722.5C 2716.21,684.813 2756.37,664.48 2805.5,661.5 Z"/></g>
<g><path style="opacity:0.986" fill="#42b648" d="M 1723.5,663.5 C 1799.76,659.375 1857.93,689.375 1898,753.5C 1927.28,810.111 1927.95,867.111 1900,924.5C 1860.57,992.812 1801.07,1024.31 1721.5,1019C 1691.42,1016.57 1663.75,1007.24 1638.5,991C 1626.12,981.3 1614.29,970.8 1603,959.5C 1589.76,942.356 1579.09,923.69 1571,903.5C 1558.43,862.836 1558.43,822.169 1571,781.5C 1591.44,726.399 1629.6,689.565 1685.5,671C 1698.09,667.381 1710.76,664.881 1723.5,663.5 Z M 1728.5,731.5 C 1774.41,728.53 1808.57,746.863 1831,786.5C 1845.1,820.802 1846.1,855.468 1834,890.5C 1812.76,935.052 1777.26,955.218 1727.5,951C 1699.33,948.34 1676.5,936.173 1659,914.5C 1637.31,884.076 1630.31,850.41 1638,813.5C 1649.76,765.566 1679.92,738.232 1728.5,731.5 Z"/></g>
<g><path style="opacity:0.987" fill="#42b648" d="M 2418.5,663.5 C 2477.24,659.148 2527.07,677.815 2568,719.5C 2576.59,730.359 2584.92,741.359 2593,752.5C 2613.79,792.684 2619.79,835.017 2611,879.5C 2606.52,900.941 2598.52,920.941 2587,939.5C 2580.65,946.856 2574.65,954.522 2569,962.5C 2521,1011.05 2463.16,1028.88 2395.5,1016C 2374.05,1011.52 2354.05,1003.52 2335.5,992C 2324.4,983.238 2313.56,974.072 2303,964.5C 2296,955.498 2289,946.498 2282,937.5C 2259.71,897.147 2252.38,854.147 2260,808.5C 2264.91,779.032 2276.57,752.699 2295,729.5C 2318.36,700.567 2347.86,680.734 2383.5,670C 2395.2,667.224 2406.87,665.058 2418.5,663.5 Z M 2424.5,731.5 C 2452.13,729.184 2477.13,736.017 2499.5,752C 2510.15,761.979 2519.32,773.145 2527,785.5C 2543.19,822.373 2543.52,859.373 2528,896.5C 2505.25,937.129 2470.41,955.296 2423.5,951C 2403.5,948.992 2385.5,941.992 2369.5,930C 2361.22,921.729 2353.72,912.896 2347,903.5C 2326.09,861.354 2326.42,819.354 2348,777.5C 2352.9,772.057 2357.56,766.39 2362,760.5C 2373.15,748.667 2386.65,740.5 2402.5,736C 2409.88,734.024 2417.22,732.524 2424.5,731.5 Z"/></g>
<g><path style="opacity:0.989" fill="#42b648" d="M 3845.5,666.5 C 3869.5,666.5 3893.5,666.5 3917.5,666.5C 3917.5,780.833 3917.5,895.167 3917.5,1009.5C 3888.13,1010.92 3866.3,998.916 3852,973.5C 3850.14,968.909 3848.47,964.243 3847,959.5C 3845.52,861.86 3845.02,764.193 3845.5,666.5 Z"/></g>
<g><path style="opacity:1" fill="#496f47" d="M 1107.5,774.5 C 1108.82,777.428 1109.49,780.761 1109.5,784.5C 1109.49,788.239 1108.82,791.572 1107.5,794.5C 1107.5,787.833 1107.5,781.167 1107.5,774.5 Z"/></g>
<g><path style="opacity:1" fill="#5fba54" d="M 643.5,879.5 C 644.496,894.324 644.829,909.324 644.5,924.5C 635.4,924.339 626.4,924.839 617.5,926C 627.239,911.096 635.906,895.596 643.5,879.5 Z"/></g>
<g><path style="opacity:1" fill="#4e9a4c" d="M 643.5,879.5 C 644.302,878.115 644.969,878.282 645.5,880C 652.111,896.896 660.778,912.562 671.5,927C 662.578,926.14 653.578,925.306 644.5,924.5C 644.829,909.324 644.496,894.324 643.5,879.5 Z"/></g>
<g><path style="opacity:1" fill="#faf4af" d="M 642.5,951.5 C 642.5,998.5 642.5,1045.5 642.5,1092.5C 610.355,1061.19 578.688,1029.35 547.5,997C 553.154,988.679 560.154,981.679 568.5,976C 590.987,961.05 615.654,952.883 642.5,951.5 Z"/></g>
<g><path style="opacity:1" fill="#f9cf78" d="M 642.5,951.5 C 645.385,951.194 648.052,951.527 650.5,952.5C 648.167,952.5 645.833,952.5 643.5,952.5C 643.5,998.833 643.5,1045.17 643.5,1091.5C 643.5,1092.17 643.167,1092.5 642.5,1092.5C 642.5,1045.5 642.5,998.5 642.5,951.5 Z"/></g>
<g><path style="opacity:1" fill="#fec769" d="M 650.5,952.5 C 678.27,955.221 702.936,965.387 724.5,983C 728.741,987.499 732.741,992.165 736.5,997C 728.346,1005.82 720.179,1014.65 712,1023.5C 689.299,1046.37 666.465,1069.03 643.5,1091.5C 643.5,1045.17 643.5,998.833 643.5,952.5C 645.833,952.5 648.167,952.5 650.5,952.5 Z"/></g>
<g><path style="opacity:1" fill="#a5a5a5" d="M 406.5,988.5 C 414.833,988.5 423.167,988.5 431.5,988.5C 427.724,989.825 423.557,990.491 419,990.5C 414.443,990.491 410.276,989.825 406.5,988.5 Z"/></g>
<g><path style="opacity:1" fill="#9d9c9c" d="M 855.5,988.5 C 858.698,987.964 861.365,988.631 863.5,990.5C 860.302,991.036 857.635,990.369 855.5,988.5 Z"/></g>
<g><path style="opacity:1" fill="#949393" d="M 882.5,988.5 C 878.627,990.43 874.294,991.097 869.5,990.5C 873.373,988.57 877.706,987.903 882.5,988.5 Z"/></g>
<g><path style="opacity:1" fill="#5fbb54" d="M 818.5,1020.5 C 819.028,1021.72 819.695,1022.89 820.5,1024C 828.531,1028.02 836.531,1032.02 844.5,1036C 902.784,1070.62 950.284,1116.45 987,1173.5C 994.233,1186.96 1001.73,1200.3 1009.5,1213.5C 1012.03,1217.55 1013.7,1221.88 1014.5,1226.5C 964.741,1267.35 907.408,1290.01 842.5,1294.5C 776.5,1294.5 710.5,1294.5 644.5,1294.5C 644.5,1240.17 644.5,1185.83 644.5,1131.5C 685.563,1089.45 726.896,1047.62 768.5,1006C 778.382,1009.25 788.382,1012.59 798.5,1016C 805.218,1017.44 811.885,1018.94 818.5,1020.5 Z"/></g>
<g><path style="opacity:1" fill="#84c467" d="M 644.5,1131.5 C 644.5,1185.83 644.5,1240.17 644.5,1294.5C 511.5,1294.5 378.5,1294.5 245.5,1294.5C 249.361,1280.44 253.528,1266.44 258,1252.5C 297.523,1150.57 365.689,1074.4 462.5,1024C 461.906,1023.54 461.239,1023.37 460.5,1023.5C 479.017,1018.9 497.517,1013.23 516,1006.5C 557.118,1047.29 597.952,1088.45 638.5,1130C 640.281,1132.04 642.281,1132.54 644.5,1131.5 Z"/></g>
<g><path style="opacity:1" fill="#486f47" d="M 908.5,1021.5 C 907.817,1023.18 906.483,1023.84 904.5,1023.5C 905.183,1021.82 906.517,1021.16 908.5,1021.5 Z"/></g>
</svg>
